<?xml version="1.0" standalone="no"?>
<!DOCTYPE svg PUBLIC "-//W3C//DTD SVG 20010904//EN"
 "http://www.w3.org/TR/2001/REC-SVG-20010904/DTD/svg10.dtd">
<svg version="1.0" xmlns="http://www.w3.org/2000/svg"
 width="400.000000pt" height="400.000000pt" viewBox="0 0 400.000000 400.000000"
 preserveAspectRatio="xMidYMid meet">
<metadata>
Created by potrace 1.11, written by Peter Selinger 2001-2013
</metadata>
<g transform="translate(0.000000,400.000000) scale(0.100000,-0.100000)"
fill="#000000" stroke="none">
<path d="M536 3040 c-82 -41 -126 -112 -126 -201 1 -149 146 -251 298 -208 85
24 162 124 162 211 0 75 -61 164 -135 199 -54 25 -147 24 -199 -1z"/>
<path d="M2215 3043 c-99 -52 -146 -150 -123 -257 14 -64 85 -139 149 -156 99
-27 214 13 266 92 38 57 44 149 13 212 -22 46 -71 92 -123 114 -40 17 -146 14
-182 -5z"/>
<path d="M1737 2519 c-70 -17 -134 -57 -200 -129 -71 -77 -70 -78 -83 13 -8
62 -30 87 -84 98 -70 13 -223 11 -243 -3 -16 -12 -17 -59 -15 -628 l3 -615
188 0 188 0 -1 368 c-1 412 -2 403 72 476 56 57 118 75 222 66 92 -7 109 0
120 52 25 128 46 265 41 273 -8 14 -103 40 -139 39 -17 -1 -48 -5 -69 -10z"/>
<path d="M3085 2514 c-89 -21 -117 -31 -165 -55 -185 -91 -262 -319 -170 -505
51 -103 130 -155 345 -225 147 -47 195 -80 195 -134 0 -110 -156 -137 -320
-55 -86 43 -140 51 -177 25 -25 -17 -113 -155 -113 -176 0 -20 82 -72 163
-104 173 -67 377 -71 544 -11 70 25 157 91 191 143 57 88 66 119 66 233 1 91
-2 111 -22 150 -50 96 -146 161 -312 211 -164 49 -230 90 -230 144 0 98 139
124 301 55 76 -32 125 -38 151 -17 20 15 108 148 108 163 0 28 -113 98 -216
135 -45 16 -90 22 -189 24 -71 2 -139 2 -150 -1z"/>
<path d="M458 2503 c-17 -4 -18 -43 -18 -629 l0 -624 190 0 190 0 0 624 0 624
-22 6 c-26 7 -314 6 -340 -1z"/>
<path d="M2138 2503 c-17 -4 -18 -43 -18 -629 l0 -624 190 0 190 0 0 624 0
624 -31 6 c-35 7 -304 6 -331 -1z"/>
</g>
</svg>
